#!OML:ASF F:\VICON\USERDATA\INSTALL\rory3\rory3.ASF
:FULLY-SPECIFIED
:DEGREES
4359
root 5.15059 17.9068 10.5443 718.46 -46.8496 8.64953
lowerback 11.7097 5.05526 4.98452
upperback 2.44679 7.18872 -1.65968
thorax -3.12336 3.52247 -5.49511
lowerneck -16.9396 11.1802 -7.20686
upperneck 46.4151 19.3665 2.52843
head 20.0314 6.39262 6.30775
rclavicle -6.75868e-014 2.46493e-014
rhumerus -27.5378 -12.4041 -76.3189
rradius 45.8497
rwrist -3.45757
rhand -16.5201 4.28604
rfingers 7.12502
rthumb 9.69836 -25.4707
lclavicle -6.75868e-014 2.46493e-014
lhumerus -31.2803 9.85245 81.572
lradius 31.0325
lwrist -6.82659
lhand -18.1082 30.5024
lfingers 7.12502
lthumb 8.16589 60.3246
rfemur -8.9117 -0.507582 25.4892
rtibia 33.3836
rfoot -16.9407 6.89581
rtoes 14.4569
lfemur -25.7386 -4.49739 -25.1339
ltibia 17.7159
lfoot 23.8611 -22.4563
ltoes 14.5379
4360
root 5.23575 17.9092 10.4811 718.481 -46.2498 8.64081
lowerback 11.6897 4.99759 4.93154
upperback 2.49106 7.10759 -1.56543
thorax -3.09519 3.4841 -5.35339
lowerneck -16.9252 11.0995 -7.23068
upperneck 46.31 19.2095 2.58014
head 19.9519 6.35511 6.2957
rclavicle 2.94201e-014 -2.06736e-014
rhumerus -27.4032 -12.2303 -76.1756
rradius 45.8337
rwrist -3.56105
rhand -16.6638 4.07976
rfingers 7.12502
rthumb 9.55977 -25.6834
lclavicle 2.94201e-014 -2.06736e-014
lhumerus -31.5508 9.32225 81.9217
lradius 31.466
lwrist -6.4647
lhand -18.6964 29.1102
lfingers 7.12502
lthumb 7.59816 58.9537
rfemur -9.23442 -0.730523 25.4704
rtibia 33.2785
rfoot -16.9414 6.53202
rtoes 14.7147
lfemur -25.8825 -4.89301 -24.7268
ltibia 17.9091
lfoot 21.9906 -23.6198
ltoes 13.8379
4361
root 5.31901 17.9158 10.4209 718.473 -45.6363 8.65369
lowerback 11.6808 4.93056 4.9175
upperback 2.51887 7.01734 -1.53762
thorax -3.07757 3.44058 -5.30372
lowerneck -16.8452 11.0523 -7.09408
upperneck 46.1363 19.0857 2.50828
head 19.8556 6.34616 6.1983
rclavicle -3.12092e-014 -1.11319e-014
rhumerus -27.2072 -12.2949 -76.1209
rradius 45.6264
rwrist -3.38171
rhand -16.7836 4.08645
rfingers 7.12502
rthumb 9.44419 -25.6819
lclavicle -3.12092e-014 -1.11319e-014
lhumerus -31.8447 8.90956 82.1386
lradius 31.8872
lwrist -6.18049
lhand -19.564 27.0555
lfingers 7.12502
lthumb 6.76069 56.9276
rfemur -9.53899 -0.997816 25.4236
rtibia 33.1575
rfoot -16.9002 6.24042
rtoes 15.4512
lfemur -26.0049 -5.58495 -24.2157
ltibia 18.3149
lfoot 18.8002 -24.8107
ltoes 9.25594
4362
root 5.39926 17.9215 10.3617 718.459 -45.0725 8.61586
lowerback 11.8144 4.90094 4.85934
upperback 2.47435 6.98131 -1.46533
thorax -3.21833 3.4163 -5.21013
lowerneck -16.7955 10.9724 -6.98205
upperneck 46.0912 18.9449 2.44497
head 19.8534 6.30891 6.12412
rclavicle -5.18828e-014 3.81667e-014
rhumerus -27.1036 -12.4588 -75.9529
rradius 45.3212
rwrist -2.99318
rhand -16.6895 4.43362
rfingers 7.12502
rthumb 9.53494 -25.3306
lclavicle -5.18828e-014 3.81667e-014
lhumerus -32.1964 8.40516 82.422
lradius 32.3868
lwrist -5.62329
lhand -19.6181 27.2505
lfingers 7.12502
lthumb 6.70845 57.1242
rfemur -9.7296 -1.2483 25.4258
rtibia 33.0501
rfoot -16.9922 5.77979
rtoes 15.5577
lfemur -26.0448 -6.24122 -23.6386
ltibia 18.8711
lfoot 15.1582 -25.5457
ltoes 3.62871
4363
root 5.47714 17.9268 10.2987 718.355 -44.4171 8.64683
lowerback 11.9583 4.83386 4.68851
upperback 2.44641 6.88203 -1.37905
thorax -3.36996 3.36132 -5.0323
lowerneck -16.797 10.9156 -6.94895
upperneck 46.1569 18.8236 2.52831
head 19.8948 6.27511 6.14629
rclavicle 6.87795e-014 1.27222e-014
rhumerus -27.0331 -12.4899 -75.8446
rradius 45.1037
rwrist -2.72361
rhand -16.5509 4.9504
rfingers 7.12502
rthumb 9.66866 -24.8077
lclavicle 6.87795e-014 1.27222e-014
lhumerus -32.571 8.09649 82.6142
lradius 32.9005
lwrist -5.42529
lhand -19.2211 27.7341
lfingers 7.12502
lthumb 7.09174 57.5953
rfemur -9.91445 -1.53119 25.3854
rtibia 32.9423
rfoot -17.0257 5.23013
rtoes 15.0715
lfemur -26.0626 -6.83739 -23.1687
ltibia 19.6065
lfoot 11.4135 -25.911
ltoes -2.13934
4364
root 5.55097 17.9348 10.2347 718.268 -43.7106 8.67256
lowerback 12.0157 4.76219 4.52512
upperback 2.45202 6.77205 -1.31264
thorax -3.43587 3.30539 -4.86582
lowerneck -16.8106 10.8427 -6.88827
upperneck 46.1886 18.6818 2.57234
head 19.9313 6.23431 6.14169
rclavicle 3.16068e-014 -3.49861e-014
rhumerus -27.0023 -12.3775 -75.7821
rradius 44.9695
rwrist -2.71128
rhand -16.531 5.29358
rfingers 7.12502
rthumb 9.68786 -24.4636
lclavicle 3.16068e-014 -3.49861e-014
lhumerus -32.817 7.81263 82.7509
lradius 33.3167
lwrist -5.39807
lhand -18.5493 27.9059
lfingers 7.12502
lthumb 7.74017 57.7442
rfemur -10.1203 -1.77281 25.3487
rtibia 32.8606
rfoot -17.0045 4.62627
rtoes 14.8048
lfemur -26.1112 -7.68026 -22.6154
ltibia 20.4716
lfoot 8.17957 -25.3933
ltoes -5.72616
4365
root 5.62165 17.9431 10.1716 718.35 -42.9698 8.53214
lowerback 11.9643 4.67672 4.54146
upperback 2.45962 6.66131 -1.26799
thorax -3.41581 3.25146 -4.80904
lowerneck -16.8835 10.7378 -6.86199
upperneck 46.2388 18.4846 2.67754
head 19.9835 6.17048 6.16835
rclavicle 8.15017e-015 -3.18055e-014
rhumerus -26.9232 -12.5869 -75.75
rradius 44.7368
rwrist -2.53574
rhand -16.4407 5.50294
rfingers 7.12502
rthumb 9.77497 -24.2502
lclavicle 8.15017e-015 -3.18055e-014
lhumerus -32.8377 7.21975 82.9229
lradius 33.4859
lwrist -4.87407
lhand -17.7605 27.9119
lfingers 7.12502
lthumb 8.50149 57.7207
rfemur -10.4109 -2.12756 25.4531
rtibia 32.8007
rfoot -16.9484 4.02958
rtoes 14.604
lfemur -26.1889 -8.31695 -21.982
ltibia 21.4084
lfoot 5.99149 -24.6047
ltoes -6.65465
4366
root 5.69271 17.9475 10.1106 718.434 -42.1767 8.33837
lowerback 11.9756 4.55277 4.59874
upperback 2.42214 6.51079 -1.17414
thorax -3.48289 3.17334 -4.72816
lowerneck -16.8532 10.6572 -7.00052
upperneck 46.2825 18.3171 2.89014
head 19.9523 6.11811 6.25688
rclavicle -5.36719e-015 1.43125e-014
rhumerus -26.9496 -12.9773 -75.6628
rradius 44.5297
rwrist -2.16974
rhand -16.2245 5.61955
rfingers 7.12502
rthumb 9.98361 -24.1237
lclavicle -5.36719e-015 1.43125e-014
lhumerus -32.9535 6.77269 83.1099
lradius 33.532
lwrist -4.39638
lhand -17.4549 27.3202
lfingers 7.12502
lthumb 8.79643 57.1169
rfemur -10.6767 -2.61574 25.6017
rtibia 32.6903
rfoot -16.8752 3.47751
rtoes 14.2976
lfemur -26.2236 -8.74984 -21.4008
ltibia 22.4799
lfoot 4.44889 -23.892
ltoes -6.95531
4367
root 5.76364 17.9541 10.0492 718.493 -41.3974 8.16596
lowerback 12.0807 4.45298 4.56092
upperback 2.32773 6.38806 -1.03876
thorax -3.67352 3.10418 -4.56769
lowerneck -16.6888 10.5843 -7.02022
upperneck 46.1628 18.1883 2.86591
head 19.8373 6.08777 6.19677
rclavicle -1.14898e-013 9.54166e-015
rhumerus -27.1926 -13.305 -75.4559
rradius 44.4762
rwrist -1.71037
rhand -15.989 5.7405
rfingers 7.12502
rthumb 10.2108 -23.9917
lclavicle -1.14898e-013 9.54166e-015
lhumerus -33.1435 6.50277 83.3083
lradius 33.5345
lwrist -4.40488
lhand -17.7936 26.6215
lfingers 7.12502
lthumb 8.46954 56.4317
rfemur -10.8985 -3.0348 25.721
rtibia 32.5163
rfoot -16.8021 2.88552
rtoes 14.0111
lfemur -26.3088 -9.32667 -20.7877
ltibia 23.7087
lfoot 3.18925 -23.0187
ltoes -7.66094
4368
root 5.82867 17.9686 9.98901 718.588 -40.7281 7.91177
lowerback 12.1282 4.40343 4.53625
upperback 2.27151 6.33007 -0.899073
thorax -3.78398 3.07081 -4.40948
lowerneck -16.7118 10.4798 -6.89681
upperneck 46.2196 18.0338 2.80245
head 19.9288 6.0293 6.13836
rclavicle -5.20816e-014 -2.06736e-014
rhumerus -27.4026 -13.6326 -75.2479
rradius 44.3403
rwrist -1.14529
rhand -15.8131 5.8082
rfingers 7.12502
rthumb 10.3805 -23.9156
lclavicle -5.20816e-014 -2.06736e-014
lhumerus -33.1978 6.2594 83.4647
lradius 33.8183
lwrist -3.30974
lhand -17.5552 27.9736
lfingers 7.12502
lthumb 8.69961 57.7743
rfemur -11.0553 -3.42931 25.8879
rtibia 32.3277
rfoot -16.7365 2.45927
rtoes 12.4436
lfemur -26.3721 -9.91621 -20.0907
ltibia 25.0233
lfoot 1.13852 -22.1891
ltoes -11.4903
4369
root 5.891 17.9824 9.92977 718.65 -40.1442 7.62208
lowerback 12.133 4.3563 4.57636
upperback 2.27733 6.27831 -0.783693
thorax -3.79488 3.04451 -4.30494
lowerneck -16.8059 10.4063 -6.87193
upperneck 46.3673 17.8803 2.95913
head 20.0409 5.97795 6.20955
rclavicle -5.96354e-016 6.36111e-015
rhumerus -27.5653 -13.8148 -75.1794
rradius 44.2579
rwrist -0.890126
rhand -15.8325 5.60494
rfingers 7.12502
rthumb 10.3618 -24.1198
lclavicle -5.96354e-016 6.36111e-015
lhumerus -33.2185 6.12532 83.5417
lradius 33.7845
lwrist -3.29043
lhand -17.6297 28.1922
lfingers 7.12502
lthumb 8.62769 57.9959
rfemur -11.1549 -3.76234 26.0797
rtibia 32.1872
rfoot -16.6257 2.16309
rtoes 10.5496
lfemur -26.3144 -10.3858 -19.3796
ltibia 26.3543
lfoot -0.918548 -21.4199
ltoes -15.7948
4370
root 5.95505 17.9857 9.86841 718.838 -39.4995 7.2108
lowerback 12.1052 4.29621 4.77741
upperback 2.27356 6.22801 -0.685895
thorax -3.77821 3.01828 -4.3051
lowerneck -16.7699 10.3234 -6.9653
upperneck 46.2843 17.6905 3.1358
head 19.9378 5.93381 6.25757
rclavicle 1.07741e-013 -9.54166e-015
rhumerus -27.8173 -14.0047 -75.1728
rradius 44.3285
rwrist -0.842771
rhand -16.006 5.22315
rfingers 7.12502
rthumb 10.1943 -24.5098
lclavicle 1.07741e-013 -9.54166e-015
lhumerus -33.1927 6.13029 83.4974
lradius 33.6566
lwrist -3.91782
lhand -17.7311 27.9134
lfingers 7.12502
lthumb 8.52982 57.7211
rfemur -11.3561 -4.03996 26.3851
rtibia 32.0919
rfoot -16.104 2.20587
rtoes 13.4158
lfemur -26.2771 -10.7351 -18.5986
ltibia 27.6878
lfoot -2.13391 -20.6511
ltoes -18.7961
4371
root 6.01845 17.9865 9.80699 718.975 -38.7506 6.91355
lowerback 12.0735 4.22786 4.88842
upperback 2.2568 6.15447 -0.617008
thorax -3.78206 2.98062 -4.28321
lowerneck -16.7545 10.215 -6.84768
upperneck 46.1431 17.5192 3.02349
head 19.892 5.88663 6.14669
rclavicle -2.18663e-014 -1.11319e-014
rhumerus -28.139 -14.3301 -75.1471
rradius 44.378
rwrist -0.821068
rhand -16.1671 5.17171
rfingers 7.12502
rthumb 10.039 -24.5689
lclavicle -2.18663e-014 -1.11319e-014
lhumerus -33.0807 6.08884 83.447
lradius 33.7259
lwrist -3.82625
lhand -17.8412 28.3867
lfingers 7.12502
lthumb 8.42362 58.1988
rfemur -11.601 -4.33348 26.5837
rtibia 32.0552
rfoot -16.3074 1.44946
rtoes 13.072
lfemur -26.2158 -11.0497 -17.99
ltibia 28.9918
lfoot -2.95332 -19.7093
ltoes -20.6036
